<svg xmlns="http://www.w3.org/2000/svg" width="42" height="42" viewBox="0 0 42 42">
  <rect x="9" y="0" width="3" height="3" fill="#1E2B3C"/>
  <rect x="6" y="3" width="3" height="3" fill="#1E2B3C"/>
  <rect x="9" y="3" width="3" height="3" fill="#F4F0E6"/>
  <rect x="12" y="3" width="3" height="3" fill="#1E2B3C"/>
  <rect x="6" y="6" width="3" height="3" fill="#1E2B3C"/>
  <rect x="9" y="6" width="3" height="3" fill="#F4F0E6"/>
  <rect x="12" y="6" width="3" height="3" fill="#1E2B3C"/>
  <rect x="6" y="9" width="3" height="3" fill="#1E2B3C"/>
  <rect x="9" y="9" width="3" height="3" fill="#F4F0E6"/>
  <rect x="12" y="9" width="3" height="3" fill="#1E2B3C"/>
  <rect x="6" y="12" width="3" height="3" fill="#1E2B3C"/>
  <rect x="9" y="12" width="3" height="3" fill="#F4F0E6"/>
  <rect x="12" y="12" width="3" height="3" fill="#1E2B3C"/>
  <rect x="15" y="12" width="3" height="3" fill="#1E2B3C"/>
  <rect x="18" y="12" width="3" height="3" fill="#1E2B3C"/>
  <rect x="3" y="15" width="3" height="3" fill="#1E2B3C"/>
  <rect x="6" y="15" width="3" height="3" fill="#1E2B3C"/>
  <rect x="9" y="15" width="3" height="3" fill="#F4F0E6"/>
  <rect x="12" y="15" width="3" height="3" fill="#F4F0E6"/>
  <rect x="15" y="15" width="3" height="3" fill="#F4F0E6"/>
  <rect x="18" y="15" width="3" height="3" fill="#F4F0E6"/>
  <rect x="21" y="15" width="3" height="3" fill="#1E2B3C"/>
  <rect x="0" y="18" width="3" height="3" fill="#1E2B3C"/>
  <rect x="3" y="18" width="3" height="3" fill="#F4F0E6"/>
  <rect x="6" y="18" width="3" height="3" fill="#1E2B3C"/>
  <rect x="9" y="18" width="3" height="3" fill="#F4F0E6"/>
  <rect x="12" y="18" width="3" height="3" fill="#F4F0E6"/>
  <rect x="15" y="18" width="3" height="3" fill="#F4F0E6"/>
  <rect x="18" y="18" width="3" height="3" fill="#F4F0E6"/>
  <rect x="21" y="18" width="3" height="3" fill="#F4F0E6"/>
  <rect x="24" y="18" width="3" height="3" fill="#1E2B3C"/>
  <rect x="0" y="21" width="3" height="3" fill="#1E2B3C"/>
  <rect x="3" y="21" width="3" height="3" fill="#F4F0E6"/>
  <rect x="6" y="21" width="3" height="3" fill="#1E2B3C"/>
  <rect x="9" y="21" width="3" height="3" fill="#F4F0E6"/>
  <rect x="12" y="21" width="3" height="3" fill="#F4F0E6"/>
  <rect x="15" y="21" width="3" height="3" fill="#F4F0E6"/>
  <rect x="18" y="21" width="3" height="3" fill="#F4F0E6"/>
  <rect x="21" y="21" width="3" height="3" fill="#F4F0E6"/>
  <rect x="24" y="21" width="3" height="3" fill="#F4F0E6"/>
  <rect x="27" y="21" width="3" height="3" fill="#1E2B3C"/>
  <rect x="3" y="24" width="3" height="3" fill="#1E2B3C"/>
  <rect x="6" y="24" width="3" height="3" fill="#1E2B3C"/>
  <rect x="9" y="24" width="3" height="3" fill="#F4F0E6"/>
  <rect x="12" y="24" width="3" height="3" fill="#F4F0E6"/>
  <rect x="15" y="24" width="3" height="3" fill="#F4F0E6"/>
  <rect x="18" y="24" width="3" height="3" fill="#F4F0E6"/>
  <rect x="21" y="24" width="3" height="3" fill="#F4F0E6"/>
  <rect x="24" y="24" width="3" height="3" fill="#F4F0E6"/>
  <rect x="27" y="24" width="3" height="3" fill="#F4F0E6"/>
  <rect x="30" y="24" width="3" height="3" fill="#1E2B3C"/>
  <rect x="6" y="27" width="3" height="3" fill="#1E2B3C"/>
  <rect x="9" y="27" width="3" height="3" fill="#F4F0E6"/>
  <rect x="12" y="27" width="3" height="3" fill="#F4F0E6"/>
  <rect x="15" y="27" width="3" height="3" fill="#F4F0E6"/>
  <rect x="18" y="27" width="3" height="3" fill="#F4F0E6"/>
  <rect x="21" y="27" width="3" height="3" fill="#F4F0E6"/>
  <rect x="24" y="27" width="3" height="3" fill="#F4F0E6"/>
  <rect x="27" y="27" width="3" height="3" fill="#F4F0E6"/>
  <rect x="30" y="27" width="3" height="3" fill="#F4F0E6"/>
  <rect x="33" y="27" width="3" height="3" fill="#1E2B3C"/>
  <rect x="6" y="30" width="3" height="3" fill="#1E2B3C"/>
  <rect x="9" y="30" width="3" height="3" fill="#F4F0E6"/>
  <rect x="12" y="30" width="3" height="3" fill="#F4F0E6"/>
  <rect x="15" y="30" width="3" height="3" fill="#F4F0E6"/>
  <rect x="18" y="30" width="3" height="3" fill="#F4F0E6"/>
  <rect x="21" y="30" width="3" height="3" fill="#F4F0E6"/>
  <rect x="24" y="30" width="3" height="3" fill="#F4F0E6"/>
  <rect x="27" y="30" width="3" height="3" fill="#F4F0E6"/>
  <rect x="30" y="30" width="3" height="3" fill="#F4F0E6"/>
  <rect x="33" y="30" width="3" height="3" fill="#F4F0E6"/>
  <rect x="36" y="30" width="3" height="3" fill="#1E2B3C"/>
  <rect x="6" y="33" width="3" height="3" fill="#1E2B3C"/>
  <rect x="9" y="33" width="3" height="3" fill="#F4F0E6"/>
  <rect x="12" y="33" width="3" height="3" fill="#F4F0E6"/>
  <rect x="15" y="33" width="3" height="3" fill="#F4F0E6"/>
  <rect x="18" y="33" width="3" height="3" fill="#F4F0E6"/>
  <rect x="21" y="33" width="3" height="3" fill="#F4F0E6"/>
  <rect x="24" y="33" width="3" height="3" fill="#F4F0E6"/>
  <rect x="27" y="33" width="3" height="3" fill="#F4F0E6"/>
  <rect x="30" y="33" width="3" height="3" fill="#F4F0E6"/>
  <rect x="33" y="33" width="3" height="3" fill="#F4F0E6"/>
  <rect x="36" y="33" width="3" height="3" fill="#1E2B3C"/>
  <rect x="6" y="36" width="3" height="3" fill="#1E2B3C"/>
  <rect x="9" y="36" width="3" height="3" fill="#F4F0E6"/>
  <rect x="12" y="36" width="3" height="3" fill="#F4F0E6"/>
  <rect x="15" y="36" width="3" height="3" fill="#F4F0E6"/>
  <rect x="18" y="36" width="3" height="3" fill="#F4F0E6"/>
  <rect x="21" y="36" width="3" height="3" fill="#F4F0E6"/>
  <rect x="24" y="36" width="3" height="3" fill="#F4F0E6"/>
  <rect x="27" y="36" width="3" height="3" fill="#F4F0E6"/>
  <rect x="30" y="36" width="3" height="3" fill="#F4F0E6"/>
  <rect x="33" y="36" width="3" height="3" fill="#1E2B3C"/>
  <rect x="9" y="39" width="3" height="3" fill="#1E2B3C"/>
  <rect x="12" y="39" width="3" height="3" fill="#1E2B3C"/>
  <rect x="15" y="39" width="3" height="3" fill="#1E2B3C"/>
  <rect x="18" y="39" width="3" height="3" fill="#1E2B3C"/>
  <rect x="21" y="39" width="3" height="3" fill="#1E2B3C"/>
  <rect x="24" y="39" width="3" height="3" fill="#1E2B3C"/>
  <rect x="27" y="39" width="3" height="3" fill="#1E2B3C"/>
  <rect x="30" y="39" width="3" height="3" fill="#1E2B3C"/>
</svg>
